<?xml version="1.0" encoding="UTF-8" standalone="no"?>
<!-- Created with Inkscape (http://www.inkscape.org/) -->

<svg
   width="32"
   height="32"
   viewBox="0 0 8.4666665 8.4666666"
   version="1.1"
   id="svg5"
   inkscape:export-filename="portfolio.svg"
   inkscape:export-xdpi="96"
   inkscape:export-ydpi="96"
   inkscape:version="1.2.2 (b0a8486541, 2022-12-01)"
   sodipodi:docname="about.svg"
   xmlns:inkscape="http://www.inkscape.org/namespaces/inkscape"
   xmlns:sodipodi="http://sodipodi.sourceforge.net/DTD/sodipodi-0.dtd"
   xmlns="http://www.w3.org/2000/svg"
   xmlns:svg="http://www.w3.org/2000/svg">
  <sodipodi:namedview
     id="namedview7"
     pagecolor="#00ff00"
     bordercolor="#000000"
     borderopacity="0.25"
     inkscape:showpageshadow="2"
     inkscape:pageopacity="0"
     inkscape:pagecheckerboard="0"
     inkscape:deskcolor="#d1d1d1"
     inkscape:document-units="mm"
     showgrid="false"
     inkscape:zoom="19.02887"
     inkscape:cx="18.41938"
     inkscape:cy="17.841311"
     inkscape:window-width="1672"
     inkscape:window-height="989"
     inkscape:window-x="0"
     inkscape:window-y="0"
     inkscape:window-maximized="1"
     inkscape:current-layer="layer1" />
  <defs
     id="defs2" />
  <g
     inkscape:label="Layer 1"
     inkscape:groupmode="layer"
     id="layer1">
    <g
       aria-label="?"
       id="text12805"
       style="font-weight:bold;font-size:10.034px;font-family:'Public Sans';-inkscape-font-specification:'Public Sans Bold';text-align:center;text-anchor:middle;opacity:1;fill:#ffffff;stroke:#ffffff;stroke-width:0.255986;paint-order:markers fill stroke;stop-color:#000000;stop-opacity:1"
       transform="matrix(0.76834394,0,0,0.76834394,0.12369646,1.1534511)">
      <path
         d="m 4.7271881,5.4182452 q 0,-0.55187 0.165561,-0.95323 0.170578,-0.406377 0.416411,-0.7073971 0.2508501,-0.306037 0.4966831,-0.561904 0.245833,-0.255867 0.411394,-0.511734 0.170578,-0.255867 0.170578,-0.571938 0,-0.356207 -0.270918,-0.566921 -0.265901,-0.2107141 -0.672278,-0.2107141 -0.4063771,0 -0.7726181,0.2608841 -0.361224,0.255867 -0.526785,0.682312 l -1.244216,-0.30102 q 0.321088,-0.7926861 0.978315,-1.21913108 0.657227,-0.42644501 1.5753381,-0.42644501 0.717431,0 1.25425,0.23078201 0.536819,0.23078201 0.832822,0.61709098 0.30102,0.3863091 0.30102,0.8579071 -0.00502,0.491666 -0.20068,0.837839 -0.190646,0.346173 -0.481632,0.622108 -0.285969,0.270918 -0.576955,0.5418361 -0.285969,0.265901 -0.481632,0.597023 -0.195663,0.326105 -0.195663,0.782652 z M 4.5114571,7.6859293 V 6.1206252 h 1.6054401 v 1.5653041 z"
         id="path12857" />
    </g>
  </g>
</svg>
