<?xml version="1.0" encoding="UTF-8" standalone="no"?>
<!-- Created with Inkscape (http://www.inkscape.org/) -->

<svg
   width="32"
   height="32"
   viewBox="0 0 8.4666665 8.4666666"
   version="1.1"
   id="svg5"
   inkscape:export-filename="portfolio.svg"
   inkscape:export-xdpi="96"
   inkscape:export-ydpi="96"
   inkscape:version="1.2.2 (b0a8486541, 2022-12-01)"
   sodipodi:docname="char.svg"
   xmlns:inkscape="http://www.inkscape.org/namespaces/inkscape"
   xmlns:sodipodi="http://sodipodi.sourceforge.net/DTD/sodipodi-0.dtd"
   xmlns="http://www.w3.org/2000/svg"
   xmlns:svg="http://www.w3.org/2000/svg">
  <sodipodi:namedview
     id="namedview7"
     pagecolor="#00ff00"
     bordercolor="#000000"
     borderopacity="0.25"
     inkscape:showpageshadow="2"
     inkscape:pageopacity="0"
     inkscape:pagecheckerboard="0"
     inkscape:deskcolor="#d1d1d1"
     inkscape:document-units="mm"
     showgrid="false"
     inkscape:zoom="19.02887"
     inkscape:cx="18.41938"
     inkscape:cy="22.045449"
     inkscape:window-width="1672"
     inkscape:window-height="989"
     inkscape:window-x="0"
     inkscape:window-y="0"
     inkscape:window-maximized="1"
     inkscape:current-layer="layer1" />
  <defs
     id="defs2" />
  <g
     inkscape:label="Layer 1"
     inkscape:groupmode="layer"
     id="layer1">
    <g
       id="path2427">
      <path
         style="color:#000000;fill:#ffffff;stroke-width:0.126;-inkscape-stroke:none"
         d="M 4.1909586,0.52709965 C 3.5699846,0.53337855 2.9513228,0.69890403 2.4112222,1.0056234 1.7858559,1.3583806 1.2670967,1.8973699 0.93844407,2.5357626 0.71102792,2.9748278 0.57494115,3.4598191 0.53743481,3.9527304 L 0.48782547,4.5061849 H 3.7620444 C 3.2194786,5.4522992 2.676764,6.398635 2.1342367,7.3447713 2.3384467,7.4393036 2.5417716,7.5358206 2.7466024,7.6289917 3.374295,7.9056493 4.0801565,7.9997959 4.7588826,7.9023601 5.3384276,7.8203946 5.8971953,7.5974965 6.374288,7.2584717 6.9084084,6.8804165 7.3400896,6.359292 7.6098715,5.7629558 7.8654739,5.2015605 7.9755373,4.5754763 7.9297486,3.9604819 7.8858926,3.3524552 7.6884028,2.7562311 7.3597576,2.2427571 6.9877114,1.6583486 6.4485302,1.1814327 5.8223837,0.88470058 5.3152043,0.64286947 4.7526998,0.52024321 4.1909586,0.52709965 Z m 0.042375,0.27285151 c 1.894994,0 3.4333822,1.53838824 3.4333822,3.43338224 0,1.8949937 -1.5383882,3.433382 -3.4333822,3.433382 -0.6216886,0 -1.2052145,-0.1653162 -1.7084229,-0.4547524 L 4.2333333,4.2333334 H 0.79995105 c 0,-1.894994 1.53838855,-3.43338224 3.43338255,-3.43338224 z"
         id="path2446" />
      <path
         style="color:#000000;fill:#ffffff;-inkscape-stroke:none"
         d="M 4.1894531,0.46484375 C 3.5577091,0.47123155 2.9304599,0.63905757 2.3808594,0.95117188 1.7445609,1.3100957 1.2172084,1.8582639 0.8828125,2.5078125 0.6519268,2.9541425 0.51270535,3.4466053 0.47460938,3.9472656 L 0.41796875,4.5683594 H 3.6523438 C 3.1277709,5.4830957 2.604606,6.3977536 2.0800781,7.3125 l -0.035156,0.060547 0.0625,0.029297 c 0.2038417,0.094362 0.4078273,0.1897486 0.6132812,0.2832032 V 7.6875 C 3.3595186,7.96906 4.0771209,8.0639636 4.7675781,7.9648437 5.3572438,7.8814469 5.9247594,7.6554727 6.4101562,7.3105469 6.9534943,6.9259674 7.3934657,6.3958344 7.6679687,5.7890625 7.9280643,5.2177987 8.0387662,4.5806836 7.9921875,3.9550781 7.9475678,3.3364636 7.7465135,2.7314562 7.4121094,2.2089844 7.0335939,1.614414 6.486714,1.1300502 5.8496094,0.828125 5.3335641,0.58206648 4.7608734,0.45786917 4.1894531,0.46484375 Z m 0.00195,0.125 C 4.7434673,0.58310546 5.2966094,0.70380303 5.7949219,0.94140625 6.410109,1.2329447 6.9410644,1.7030983 7.3066406,2.2773438 7.6295262,2.7818189 7.8240953,3.3674061 7.8671875,3.9648438 7.9121861,4.5692259 7.8038431,5.1848025 7.5527344,5.7363281 7.2876741,6.3222274 6.8627924,6.8355011 6.3378906,7.2070312 5.869103,7.5401544 5.3194232,7.7593098 4.75,7.8398437 4.0836529,7.9355025 3.3895589,7.8434099 2.7734375,7.5722656 h -0.00195 C 2.5891923,7.4893279 2.4070027,7.4012232 2.2246094,7.3164062 2.7555371,6.3905042 3.285447,5.4629844 3.8164063,4.5371094 l 0.054687,-0.09375 H 0.55664062 L 0.59960937,3.9570313 C 0.63647816,3.4724988 0.77071799,2.9958082 0.99414063,2.5644531 1.1627535,2.2369302 1.4910333,2.0415982 1.75,1.7792969 1.125807,2.4110291 0.73632812,3.2754769 0.73632812,4.2324219 V 4.296875 H 4.1230469 l -1.6835938,2.9375 0.054687,0.03125 c 0.5124671,0.2947616 1.1054249,0.4648437 1.7382813,0.4648437 1.9290884,10e-8 3.4980468,-1.5689587 3.4980468,-3.4980468 0,-1.9290884 -1.5689584,-3.49609378 -3.4980468,-3.49609378 C 3.2739192,0.73632813 2.4073807,1.1259668 1.7753906,1.7519531 2.0058574,1.523255 2.1587942,1.219963 2.4414063,1.0605469 2.9720059,0.75922305 3.5812035,0.59601374 4.1914062,0.58984375 Z m 0.041016,0.2734375 c 1.8608958,0 3.3710937,1.50824475 3.3710937,3.36914065 0,1.8608955 -1.5101979,3.3710937 -3.3710937,3.3710937 -0.5876619,0 -1.132216,-0.1630987 -1.6132813,-0.4277344 L 4.3417969,4.1699219 H 0.875 C 0.91030968,2.3395735 2.3936538,0.86328125 4.2324219,0.86328125 Z"
         id="path2448" />
    </g>
    <circle
       vector-effect="non-scaling-stroke"
       cx="2.6105418"
       cy="3.3365288"
       r="0.33309823"
       fill="#000000"
       id="circle2407"
       style="fill:#ffffff;stroke-width:0.0256229" />
    <circle
       vector-effect="non-scaling-stroke"
       cx="5.8561196"
       cy="3.3365288"
       r="0.33309823"
       fill="#000000"
       id="circle2409"
       style="fill:#ffffff;stroke-width:0.0256229" />
  </g>
</svg>
