<?xml version="1.0" encoding="UTF-8" standalone="no"?>
<!-- Created with Inkscape (http://www.inkscape.org/) -->

<svg
   width="32"
   height="32"
   viewBox="0 0 8.4666665 8.4666666"
   version="1.1"
   id="svg5"
   inkscape:export-filename="portfolio.svg"
   inkscape:export-xdpi="96"
   inkscape:export-ydpi="96"
   inkscape:version="1.2.2 (b0a8486541, 2022-12-01)"
   sodipodi:docname="good.svg"
   xmlns:inkscape="http://www.inkscape.org/namespaces/inkscape"
   xmlns:sodipodi="http://sodipodi.sourceforge.net/DTD/sodipodi-0.dtd"
   xmlns="http://www.w3.org/2000/svg"
   xmlns:svg="http://www.w3.org/2000/svg">
  <sodipodi:namedview
     id="namedview7"
     pagecolor="#00ff00"
     bordercolor="#000000"
     borderopacity="0.25"
     inkscape:showpageshadow="2"
     inkscape:pageopacity="0"
     inkscape:pagecheckerboard="0"
     inkscape:deskcolor="#d1d1d1"
     inkscape:document-units="mm"
     showgrid="false"
     inkscape:zoom="19.02887"
     inkscape:cx="18.41938"
     inkscape:cy="17.841311"
     inkscape:window-width="1672"
     inkscape:window-height="989"
     inkscape:window-x="0"
     inkscape:window-y="0"
     inkscape:window-maximized="1"
     inkscape:current-layer="layer1" />
  <defs
     id="defs2" />
  <g
     inkscape:label="Layer 1"
     inkscape:groupmode="layer"
     id="layer1">
    <path
       style="font-variation-settings:normal;opacity:1;fill:#ffffff;fill-opacity:1;stroke:none;stroke-width:0;stroke-linecap:butt;stroke-linejoin:miter;stroke-miterlimit:4;stroke-dasharray:none;stroke-dashoffset:0;stroke-opacity:1;paint-order:markers fill stroke;stop-color:#000000;stop-opacity:1"
       d="m -0.42900362,4.1488123 c 0,0 4.15846512,-0.1455712 4.28059532,-0.3629257 C 3.973722,3.5685319 4.233953,0.67915548 4.3747177,0.57811413 4.5256845,0.46974966 5.7784751,0.2921522 5.626345,1.8018965 5.4742149,3.3116408 5.4342212,3.6613097 5.4342212,3.6613097 c 0,0 2.306538,0.057671 2.25249,0.6429999 -0.054048,0.5853292 -0.2594277,0.6044621 -0.2594277,0.6044621 0,0 0.2728381,0.1879433 0.2683156,0.5173501 -0.00452,0.3294067 -0.2744769,0.4618548 -0.2744769,0.4618548 0,0 0.2824168,-0.035093 0.2647786,0.3519453 -0.01764,0.3870386 -0.3182768,0.5649933 -0.3182768,0.5649933 0,0 0.2199298,0.035839 0.2199433,0.4762013 C 7.5875811,7.7214795 6.6273875,7.904364 5.8624782,7.8504337 5.0975688,7.7965037 4.9086291,7.7337977 4.867815,7.602204 4.8270006,7.4706103 -0.37686632,7.2049407 -0.37686632,7.2049407 Z"
       id="path12890"
       sodipodi:nodetypes="cssscscccscssscc" />
  </g>
</svg>
