<?xml version="1.0" encoding="UTF-8" standalone="no"?>
<!-- Created with Inkscape (http://www.inkscape.org/) -->

<svg
   width="32"
   height="32"
   viewBox="0 0 8.4666665 8.4666666"
   version="1.1"
   id="svg5"
   inkscape:export-filename="portfolio.svg"
   inkscape:export-xdpi="96"
   inkscape:export-ydpi="96"
   inkscape:version="1.2.2 (b0a8486541, 2022-12-01)"
   sodipodi:docname="videos.svg"
   xmlns:inkscape="http://www.inkscape.org/namespaces/inkscape"
   xmlns:sodipodi="http://sodipodi.sourceforge.net/DTD/sodipodi-0.dtd"
   xmlns="http://www.w3.org/2000/svg"
   xmlns:svg="http://www.w3.org/2000/svg">
  <sodipodi:namedview
     id="namedview7"
     pagecolor="#00ff00"
     bordercolor="#000000"
     borderopacity="0.25"
     inkscape:showpageshadow="2"
     inkscape:pageopacity="0"
     inkscape:pagecheckerboard="0"
     inkscape:deskcolor="#d1d1d1"
     inkscape:document-units="mm"
     showgrid="false"
     inkscape:zoom="19.02887"
     inkscape:cx="14.320346"
     inkscape:cy="15.791794"
     inkscape:window-width="1672"
     inkscape:window-height="989"
     inkscape:window-x="0"
     inkscape:window-y="0"
     inkscape:window-maximized="1"
     inkscape:current-layer="layer1" />
  <defs
     id="defs2" />
  <g
     inkscape:label="Layer 1"
     inkscape:groupmode="layer"
     id="layer1">
    <path
       id="rect2254"
       style="font-variation-settings:normal;vector-effect:none;fill:#ffffff;fill-opacity:1;stroke-width:0.567031;stroke-linecap:butt;stroke-linejoin:miter;stroke-miterlimit:4;stroke-dasharray:none;stroke-dashoffset:0;stroke-opacity:1;-inkscape-stroke:none;paint-order:markers fill stroke;stop-color:#000000"
       d="M 0.56844068,0.66972656 V 1.4242025 7.0424642 7.7969401 H 4.233333 7.898226 V 7.0424642 1.4242025 0.66972656 H 4.233333 Z m 0.4175455,0.10852051 H 1.699121 V 1.3151652 H 0.98598618 Z m 1.05833342,0 H 2.757454 V 1.3151652 H 2.0443196 Z m 1.0583334,0 H 3.815788 V 1.3151652 H 3.102653 Z m 1.548226,0 H 5.364014 V 1.3151652 H 4.650879 Z m 1.058333,0 H 6.422347 V 1.3151652 H 5.709212 Z m 1.058334,0 H 7.48068 V 1.3151652 H 6.767546 Z M 0.99942208,1.7544149 H 7.467244 V 6.7122518 H 0.99942208 Z M 0.98598618,7.1509847 H 1.699121 V 7.6879028 H 0.98598618 Z m 1.05833342,0 H 2.757454 V 7.6879028 H 2.0443196 Z m 1.0583334,0 H 3.815788 V 7.6879028 H 3.102653 Z m 1.548226,0 H 5.364014 V 7.6879028 H 4.650879 Z m 1.058333,0 H 6.422347 V 7.6879028 H 5.709212 Z m 1.058334,0 H 7.48068 V 7.6879028 H 6.767546 Z" />
  </g>
</svg>
